# xmcd CD database file
#
# Track frame offsets:
#	150
#	13811
#	27811
#	41936
#	58111
#	73797
#	94376
#	108978
#	124097
#	141114
#	155482
#	170876
#
# Disc length: 2750 seconds
#
# Revision: 0
# Processed by: cddbd v1.5.2PL0 Copyright (c) Steve Scherf et al.
# Submitted via: CDex 1.70beta2
#
DISCID=b00abc0c
DTITLE=Ina Müller - Weiblich Ledig 40
DYEAR=2006
DGENRE=Deutsch
TTITLE0=Bye Bye Arschgeweih
TTITLE1=So was passiert mir heut nicht mehr
TTITLE2=Wegen einer Älteren
TTITLE3=1000 Lichter
TTITLE4=Lieber Orangenhaut
TTITLE5=Allein durch Hamburg
TTITLE6=Auf halber Strecke
TTITLE7=Hoffentlich ist der Sommer bald vorbei
TTITLE8=Ich ziehe aus 
TTITLE9=Hätt ich'n Hund
TTITLE10=Dumm kickt gut
TTITLE11=Kap der guten Hoffnung
EXTD=YEAR: 2006
EXTT0=
EXTT1=
EXTT2=
EXTT3=
EXTT4=
EXTT5=
EXTT6=
EXTT7=
EXTT8=
EXTT9=
EXTT10=
EXTT11=
PLAYORDER=
